{
  "accessors": [
    {
      "bufferView": 2,
      "componentType": 5126,
      "count": 8651,
      "max": [3.011620044708252, 4.757284641265869, 3.6227686405181885],
      "min": [-3.2200398445129395, -3.6773457527160645, 0.0],
      "type": "VEC3"
    },
    {
      "bufferView": 2,
      "byteOffset": 103812,
      "componentType": 5126,
      "count": 8651,
      "max": [1.0, 0.9999999403953552, 1.0],
      "min": [-0.9999999403953552, -0.9999999403953552, -1.0],
      "type": "VEC3"
    },
    {
      "bufferView": 1,
      "componentType": 5126,
      "count": 8651,
      "max": [0.9999999403953552, 1.0],
      "min": [0.0, 0.0],
      "type": "VEC2"
    },
    {
      "bufferView": 0,
      "componentType": 5125,
      "count": 18354,
      "type": "SCALAR"
    },
    {
      "bufferView": 2,
      "byteOffset": 207624,
      "componentType": 5126,
      "count": 2890,
      "max": [3.0104665756225586, 2.6076016426086426, 4.358215808868408],
      "min": [-2.82606840133667, -3.6804733276367188, 3.4503045082092285],
      "type": "VEC3"
    },
    {
      "bufferView": 2,
      "byteOffset": 242304,
      "componentType": 5126,
      "count": 2890,
      "max": [0.9999999403953552, 0.9999999403953552, 1.0],
      "min": [-0.9999999403953552, -0.9999999403953552, -1.0],
      "type": "VEC3"
    },
    {
      "bufferView": 1,
      "byteOffset": 69208,
      "componentType": 5126,
      "count": 2890,
      "max": [1.0, 1.0],
      "min": [0.0, 0.0],
      "type": "VEC2"
    },
    {
      "bufferView": 0,
      "byteOffset": 73416,
      "componentType": 5125,
      "count": 7683,
      "type": "SCALAR"
    },
    {
      "bufferView": 2,
      "byteOffset": 276984,
      "componentType": 5126,
      "count": 232,
      "max": [3.0104665756225586, 2.6076016426086426, 0.010963591746985912],
      "min": [-2.82606840133667, -3.6804733276367188, -0.12467122077941895],
      "type": "VEC3"
    },
    {
      "bufferView": 2,
      "byteOffset": 279768,
      "componentType": 5126,
      "count": 232,
      "max": [0.9999999403953552, 0.9999999403953552, 1.0],
      "min": [-0.9999999403953552, -0.9999999403953552, -1.0],
      "type": "VEC3"
    },
    {
      "bufferView": 1,
      "byteOffset": 92328,
      "componentType": 5126,
      "count": 232,
      "max": [1.0, 1.0],
      "min": [0.0, 0.0],
      "type": "VEC2"
    },
    {
      "bufferView": 0,
      "byteOffset": 104148,
      "componentType": 5125,
      "count": 372,
      "type": "SCALAR"
    },
    {
      "bufferView": 2,
      "byteOffset": 282552,
      "componentType": 5126,
      "count": 132,
      "max": [2.2319302558898926, 5.110241889953613, 3.0998032093048096],
      "min": [-1.991349458694458, 4.639110088348389, 1.8407609462738037],
      "type": "VEC3"
    },
    {
      "bufferView": 2,
      "byteOffset": 284136,
      "componentType": 5126,
      "count": 132,
      "max": [0.9999999403953552, 0.9999998807907104, 1.0],
      "min": [-0.9999999403953552, -0.9999998807907104, -1.0],
      "type": "VEC3"
    },
    {
      "bufferView": 1,
      "byteOffset": 94184,
      "componentType": 5126,
      "count": 132,
      "max": [0.9304964542388916, 0.9932882785797119],
      "min": [0.33990803360939026, 0.0],
      "type": "VEC2"
    },
    {
      "bufferView": 0,
      "byteOffset": 105636,
      "componentType": 5125,
      "count": 132,
      "type": "SCALAR"
    },
    {
      "bufferView": 2,
      "byteOffset": 285720,
      "componentType": 5126,
      "count": 470,
      "max": [2.240887403488159, 5.119198799133301, 3.1087512969970703],
      "min": [-2.0003066062927246, 4.630153179168701, 1.831812858581543],
      "type": "VEC3"
    },
    {
      "bufferView": 2,
      "byteOffset": 291360,
      "componentType": 5126,
      "count": 470,
      "max": [0.9572480916976929, 1.0, 1.0],
      "min": [-0.9572526216506958, -1.0, -0.9999999403953552],
      "type": "VEC3"
    },
    {
      "bufferView": 1,
      "byteOffset": 95240,
      "componentType": 5126,
      "count": 470,
      "max": [0.9999999403953552, 1.0],
      "min": [0.0, 0.0],
      "type": "VEC2"
    },
    {
      "bufferView": 0,
      "byteOffset": 106164,
      "componentType": 5125,
      "count": 480,
      "type": "SCALAR"
    },
    {
      "bufferView": 2,
      "byteOffset": 297000,
      "componentType": 5126,
      "count": 96,
      "max": [-2.4776628017425537, 4.411131381988525, 2.8916165828704834],
      "min": [-2.5021042823791504, 2.8603482246398926, 1.7288720607757568],
      "type": "VEC3"
    },
    {
      "bufferView": 2,
      "byteOffset": 298152,
      "componentType": 5126,
      "count": 96,
      "max": [0.9996227025985718, 0.9999998807907104, 0.8834949731826782],
      "min": [-0.9999985694885254, -0.9999999403953552, -0.8850575089454651],
      "type": "VEC3"
    },
    {
      "bufferView": 1,
      "byteOffset": 99000,
      "componentType": 5126,
      "count": 96,
      "max": [0.9999999403953552, 1.0],
      "min": [0.0, 0.0],
      "type": "VEC2"
    },
    {
      "bufferView": 0,
      "byteOffset": 108084,
      "componentType": 5125,
      "count": 96,
      "type": "SCALAR"
    },
    {
      "bufferView": 2,
      "byteOffset": 299304,
      "componentType": 5126,
      "count": 12,
      "max": [-2.4998486042022705, 4.402879238128662, 2.8172266483306885],
      "min": [-2.5240461826324463, 2.868624687194824, 1.8033356666564941],
      "type": "VEC3"
    },
    {
      "bufferView": 2,
      "byteOffset": 299448,
      "componentType": 5126,
      "count": 12,
      "max": [0.0005497032543644309, 0.9999999403953552, 8.471588444081135e-7],
      "min": [
        -0.0005277267191559076, -0.9999999403953552, -1.270793461571884e-7
      ],
      "type": "VEC3"
    },
    {
      "bufferView": 1,
      "byteOffset": 99768,
      "componentType": 5126,
      "count": 12,
      "max": [1.0, 0.872339129447937],
      "min": [0.9909209609031677, 0.0],
      "type": "VEC2"
    },
    {
      "bufferView": 0,
      "byteOffset": 108468,
      "componentType": 5125,
      "count": 12,
      "type": "SCALAR"
    },
    {
      "bufferView": 2,
      "byteOffset": 299592,
      "componentType": 5126,
      "count": 6,
      "max": [-2.477954387664795, 3.0119457244873047, 2.9081544876098633],
      "min": [-2.4779908657073975, 2.966824531555176, 2.9006729125976563],
      "type": "VEC3"
    },
    {
      "bufferView": 2,
      "byteOffset": 299664,
      "componentType": 5126,
      "count": 6,
      "max": [
        0.9999985694885254, -0.0005186256603337824, -0.0016569985309615731
      ],
      "min": [
        0.9999985098838806, -0.000540742592420429, -0.0016571449814364314
      ],
      "type": "VEC3"
    },
    {
      "bufferView": 1,
      "byteOffset": 99864,
      "componentType": 5126,
      "count": 6,
      "max": [1.0, 1.0],
      "min": [0.5024438500404358, 0.0],
      "type": "VEC2"
    },
    {
      "bufferView": 0,
      "byteOffset": 108516,
      "componentType": 5125,
      "count": 6,
      "type": "SCALAR"
    },
    {
      "bufferView": 2,
      "byteOffset": 299736,
      "componentType": 5126,
      "count": 6,
      "max": [-2.4779248237609863, 3.0670042037963867, 2.9081544876098633],
      "min": [-2.477961301803589, 3.021883010864258, 2.9006729125976563],
      "type": "VEC3"
    },
    {
      "bufferView": 2,
      "byteOffset": 299808,
      "componentType": 5126,
      "count": 6,
      "max": [
        0.9999985694885254, -0.0005296602612361312, -0.0016569985309615731
      ],
      "min": [
        0.9999985098838806, -0.000540742592420429, -0.0016571449814364314
      ],
      "type": "VEC3"
    },
    {
      "bufferView": 1,
      "byteOffset": 99912,
      "componentType": 5126,
      "count": 6,
      "max": [0.4975561797618866, 1.0],
      "min": [0.0, 0.0],
      "type": "VEC2"
    },
    {
      "bufferView": 0,
      "byteOffset": 108540,
      "componentType": 5125,
      "count": 6,
      "type": "SCALAR"
    },
    {
      "bufferView": 2,
      "byteOffset": 299880,
      "componentType": 5126,
      "count": 2770,
      "max": [-1.2109657526016235, -2.352165460586548, 3.62436580657959],
      "min": [-1.8394622802734375, -2.980769634246826, 3.540905475616455],
      "type": "VEC3"
    },
    {
      "bufferView": 2,
      "byteOffset": 333120,
      "componentType": 5126,
      "count": 2770,
      "max": [0.9999998807907104, 0.9999988079071045, 0.9978408813476563],
      "min": [-0.9999998807907104, -0.9999988079071045, -0.9980713725090027],
      "type": "VEC3"
    },
    {
      "bufferView": 1,
      "byteOffset": 99960,
      "componentType": 5126,
      "count": 2770,
      "max": [1.0, 1.0],
      "min": [-4.041939973831177e-7, 0.010001354850828648],
      "type": "VEC2"
    },
    {
      "bufferView": 0,
      "byteOffset": 108564,
      "componentType": 5125,
      "count": 9282,
      "type": "SCALAR"
    },
    {
      "bufferView": 2,
      "byteOffset": 366360,
      "componentType": 5126,
      "count": 72,
      "max": [-1.2596980333328247, -2.4009275436401367, 3.565861701965332],
      "min": [-1.7907289266586304, -2.931957721710205, 3.5650901794433594],
      "type": "VEC3"
    },
    {
      "bufferView": 2,
      "byteOffset": 367224,
      "componentType": 5126,
      "count": 72,
      "max": [
        0.00031868668156675994, 0.0015314400661736727, -0.9999988079071045
      ],
      "min": [
        -0.0003186739922966808, 0.0013006697408854961, -0.9999992251396179
      ],
      "type": "VEC3"
    },
    {
      "bufferView": 1,
      "byteOffset": 122120,
      "componentType": 5126,
      "count": 72,
      "max": [0.45278221368789673, 0.4527820646762848],
      "min": [0.047217853367328644, 0.047217849642038345],
      "type": "VEC2"
    },
    {
      "bufferView": 0,
      "byteOffset": 145692,
      "componentType": 5125,
      "count": 210,
      "type": "SCALAR"
    },
    {
      "bufferView": 2,
      "byteOffset": 368088,
      "componentType": 5126,
      "count": 2768,
      "max": [2.2147152423858643, -2.3540053367614746, 3.62436580657959],
      "min": [1.5862187147140503, -2.982609748840332, 3.540905475616455],
      "type": "VEC3"
    },
    {
      "bufferView": 2,
      "byteOffset": 401304,
      "componentType": 5126,
      "count": 2768,
      "max": [0.9999998807907104, 0.9999988079071045, 0.9978381991386414],
      "min": [-0.9999998807907104, -0.9999988079071045, -0.9980704188346863],
      "type": "VEC3"
    },
    {
      "bufferView": 1,
      "byteOffset": 122696,
      "componentType": 5126,
      "count": 2768,
      "max": [1.0, 1.0],
      "min": [-4.041939973831177e-7, 0.010001354850828648],
      "type": "VEC2"
    },
    {
      "bufferView": 0,
      "byteOffset": 146532,
      "componentType": 5125,
      "count": 9282,
      "type": "SCALAR"
    },
    {
      "bufferView": 2,
      "byteOffset": 434520,
      "componentType": 5126,
      "count": 72,
      "max": [2.165982961654663, -2.4027674198150635, 3.565861701965332],
      "min": [1.6349519491195679, -2.933797836303711, 3.5650901794433594],
      "type": "VEC3"
    },
    {
      "bufferView": 2,
      "byteOffset": 435384,
      "componentType": 5126,
      "count": 72,
      "max": [0.0003186993708368391, 0.001533003756776452, -0.9999988079071045],
      "min": [
        -0.00031877559376880527, 0.0013072836445644498, -0.9999992251396179
      ],
      "type": "VEC3"
    },
    {
      "bufferView": 1,
      "byteOffset": 144840,
      "componentType": 5126,
      "count": 72,
      "max": [0.45278221368789673, 0.4527820646762848],
      "min": [0.047217853367328644, 0.047217849642038345],
      "type": "VEC2"
    },
    {
      "bufferView": 0,
      "byteOffset": 183660,
      "componentType": 5125,
      "count": 210,
      "type": "SCALAR"
    },
    {
      "bufferView": 2,
      "byteOffset": 436248,
      "componentType": 5126,
      "count": 870,
      "max": [1.7557456493377686, 3.5821468830108643, 3.5331811904907227],
      "min": [-1.359877586364746, 3.4667415618896484, 3.4292502403259277],
      "type": "VEC3"
    },
    {
      "bufferView": 2,
      "byteOffset": 446688,
      "componentType": 5126,
      "count": 870,
      "max": [0.9999999403953552, 0.9999999403953552, 1.0],
      "min": [-0.9999999403953552, -0.9999999403953552, -1.0],
      "type": "VEC3"
    },
    {
      "bufferView": 0,
      "byteOffset": 184500,
      "componentType": 5125,
      "count": 3438,
      "type": "SCALAR"
    },
    {
      "bufferView": 2,
      "byteOffset": 457128,
      "componentType": 5126,
      "count": 90,
      "max": [1.7280349731445313, 3.554457187652588, 3.4516329765319824],
      "min": [-1.3321878910064697, 3.4946682453155518, 3.4457755088806152],
      "type": "VEC3"
    },
    {
      "bufferView": 2,
      "byteOffset": 458208,
      "componentType": 5126,
      "count": 90,
      "max": [0.8623762726783752, 0.8622452616691589, -0.44880473613739014],
      "min": [-0.8622602820396423, -0.8623879551887512, -1.0],
      "type": "VEC3"
    },
    {
      "bufferView": 0,
      "byteOffset": 198252,
      "componentType": 5125,
      "count": 270,
      "type": "SCALAR"
    },
    {
      "bufferView": 2,
      "byteOffset": 459288,
      "componentType": 5126,
      "count": 337,
      "max": [-2.8215789794921875, -1.4493212699890137, 3.161050319671631],
      "min": [-2.8220975399017334, -2.4149069786071777, 2.844217300415039],
      "type": "VEC3"
    },
    {
      "bufferView": 2,
      "byteOffset": 463332,
      "componentType": 5126,
      "count": 337,
      "max": [0.9999999403953552, -0.0005330547573976219, 6.021473836881341e-6],
      "min": [
        0.9999998807907104, -0.0005393036408349872, -6.088446635743594e-9
      ],
      "type": "VEC3"
    },
    {
      "bufferView": 1,
      "byteOffset": 145416,
      "componentType": 5126,
      "count": 337,
      "max": [1.0000001192092896, 1.0000001192092896],
      "min": [0.0, 0.0],
      "type": "VEC2"
    },
    {
      "bufferView": 0,
      "byteOffset": 199332,
      "componentType": 5125,
      "count": 384,
      "type": "SCALAR"
    },
    {
      "bufferView": 2,
      "byteOffset": 467376,
      "componentType": 5126,
      "count": 320,
      "max": [2.737567186355591, 4.473621368408203, 3.0112361907958984],
      "min": [2.6635825634002686, 2.783646583557129, 2.0686230659484863],
      "type": "VEC3"
    },
    {
      "bufferView": 2,
      "byteOffset": 471216,
      "componentType": 5126,
      "count": 320,
      "max": [0.9999997615814209, 0.9996595978736877, 0.9824603796005249],
      "min": [-0.9999997615814209, -0.9996640682220459, -0.9824649095535278],
      "type": "VEC3"
    },
    {
      "bufferView": 1,
      "byteOffset": 148112,
      "componentType": 5126,
      "count": 320,
      "max": [0.8759040236473083, 0.9993588328361511],
      "min": [0.0006411629146896303, 0.0006411629146896303],
      "type": "VEC2"
    },
    {
      "bufferView": 0,
      "byteOffset": 200868,
      "componentType": 5125,
      "count": 648,
      "type": "SCALAR"
    },
    {
      "bufferView": 2,
      "byteOffset": 475056,
      "componentType": 5126,
      "count": 444,
      "max": [2.664658546447754, 4.893321990966797, 0.9101487398147583],
      "min": [-1.5431249141693115, 2.6067333221435547, 0.045830368995666504],
      "type": "VEC3"
    },
    {
      "bufferView": 2,
      "byteOffset": 480384,
      "componentType": 5126,
      "count": 444,
      "max": [0.9969208836555481, 0.9997859001159668, 0.9999861717224121],
      "min": [-0.9998126029968262, -0.9997949004173279, -0.9999880790710449],
      "type": "VEC3"
    },
    {
      "bufferView": 1,
      "byteOffset": 150672,
      "componentType": 5126,
      "count": 444,
      "max": [1.0, 1.0],
      "min": [0.0, 0.0],
      "type": "VEC2"
    },
    {
      "bufferView": 0,
      "byteOffset": 203460,
      "componentType": 5125,
      "count": 1476,
      "type": "SCALAR"
    }
  ],
  "asset": {
    "extras": {
      "author": "Van_Twinkle (https://sketchfab.com/Van_Twinkle)",
      "license": "CC-BY-4.0 (http://creativecommons.org/licenses/by/4.0/)",
      "source": "https://sketchfab.com/3d-models/sci-fi-interior-room-ec3e1efe815743439322bd1536a886e3",
      "title": "Sci-Fi Interior Room"
    },
    "generator": "Sketchfab-15.26.0",
    "version": "2.0"
  },
  "bufferViews": [
    {
      "buffer": 0,
      "byteLength": 209364,
      "name": "floatBufferViews",
      "target": 34963
    },
    {
      "buffer": 0,
      "byteLength": 154224,
      "byteOffset": 209364,
      "byteStride": 8,
      "name": "floatBufferViews",
      "target": 34962
    },
    {
      "buffer": 0,
      "byteLength": 485712,
      "byteOffset": 363588,
      "byteStride": 12,
      "name": "floatBufferViews",
      "target": 34962
    }
  ],
  "buffers": [
    {
      "byteLength": 849300,
      "uri": "scene.bin"
    }
  ],
  "extensionsUsed": [
    "KHR_materials_clearcoat",
    "KHR_materials_emissive_strength"
  ],
  "images": [
    {
      "uri": "textures/Decal_baseColor.png"
    }
  ],
  "materials": [
    {
      "doubleSided": true,
      "name": "Bed.frozen__0",
      "pbrMetallicRoughness": {
        "metallicFactor": 0.0,
        "roughnessFactor": 0.6
      }
    },
    {
      "doubleSided": true,
      "name": "Base_Material",
      "pbrMetallicRoughness": {
        "baseColorFactor": [0.8, 0.8, 0.8, 1.0],
        "metallicFactor": 0.0,
        "roughnessFactor": 0.8211145618000169
      }
    },
    {
      "alphaMode": "BLEND",
      "doubleSided": true,
      "extensions": {
        "KHR_materials_clearcoat": {
          "clearcoatFactor": 1.0,
          "clearcoatRoughnessFactor": 0.04
        }
      },
      "name": "Glass",
      "pbrMetallicRoughness": {
        "baseColorFactor": [
          0.5904156236851367, 1.0, 0.8789684163246814, 0.1630481159561629
        ],
        "metallicFactor": 0.0,
        "roughnessFactor": 0.8630333517466386
      }
    },
    {
      "doubleSided": true,
      "name": "Window_border",
      "pbrMetallicRoughness": {
        "roughnessFactor": 0.37638209945020784
      }
    },
    {
      "doubleSided": true,
      "extensions": {
        "KHR_materials_clearcoat": {
          "clearcoatFactor": 1.0,
          "clearcoatRoughnessFactor": 0.04
        }
      },
      "name": "Screen",
      "pbrMetallicRoughness": {
        "baseColorFactor": [0.0522155, 0.0522155, 0.0522155, 1.0],
        "metallicFactor": 0.0,
        "roughnessFactor": 0.9872098668335705
      }
    },
    {
      "doubleSided": true,
      "emissiveFactor": [1.0, 1.0, 1.0],
      "extensions": {
        "KHR_materials_emissive_strength": {
          "emissiveStrength": 10.0
        }
      },
      "name": "Emmisive",
      "pbrMetallicRoughness": {
        "baseColorFactor": [0.8, 0.8, 0.8, 1.0],
        "metallicFactor": 0.0,
        "roughnessFactor": 0.8040408205773457
      }
    },
    {
      "doubleSided": true,
      "emissiveFactor": [1.0, 0.0, 0.0],
      "extensions": {
        "KHR_materials_emissive_strength": {
          "emissiveStrength": 10.0
        }
      },
      "name": "Emmisve",
      "pbrMetallicRoughness": {
        "metallicFactor": 0.0,
        "roughnessFactor": 0.961922635425332
      }
    },
    {
      "doubleSided": true,
      "name": "LED_housing",
      "pbrMetallicRoughness": {
        "baseColorFactor": [0.8, 0.8, 0.8, 1.0],
        "metallicFactor": 0.0,
        "roughnessFactor": 0.7809109769979335
      }
    },
    {
      "doubleSided": true,
      "emissiveFactor": [1.0, 1.0, 1.0],
      "extensions": {
        "KHR_materials_emissive_strength": {
          "emissiveStrength": 10.0
        }
      },
      "name": "LED_emmisive",
      "pbrMetallicRoughness": {
        "baseColorFactor": [0.8, 0.8, 0.8, 1.0],
        "metallicFactor": 0.0,
        "roughnessFactor": 0.8040408205773457
      }
    },
    {
      "doubleSided": true,
      "name": "Bed_Top_Light_Metal",
      "pbrMetallicRoughness": {
        "roughnessFactor": 0.6384781363143202
      }
    },
    {
      "doubleSided": true,
      "emissiveFactor": [1.0, 1.0, 1.0],
      "extensions": {
        "KHR_materials_emissive_strength": {
          "emissiveStrength": 10.0
        }
      },
      "name": "Bed_Top_Light_Emmision",
      "pbrMetallicRoughness": {
        "baseColorFactor": [0.8, 0.8, 0.8, 1.0],
        "metallicFactor": 0.0,
        "roughnessFactor": 0.8040408205773457
      }
    },
    {
      "alphaMode": "MASK",
      "doubleSided": true,
      "name": "Decal",
      "pbrMetallicRoughness": {
        "baseColorTexture": {
          "index": 0
        },
        "metallicFactor": 0.0,
        "roughnessFactor": 0.7809109769979335
      }
    },
    {
      "doubleSided": true,
      "emissiveFactor": [1.0, 1.0, 1.0],
      "extensions": {
        "KHR_materials_emissive_strength": {
          "emissiveStrength": 6.6
        }
      },
      "name": "Bed_Lamp",
      "pbrMetallicRoughness": {
        "baseColorFactor": [0.8, 0.8, 0.8, 1.0],
        "metallicFactor": 0.0,
        "roughnessFactor": 0.8211145618000169
      }
    }
  ],
  "meshes": [
    {
      "name": "Wall_Base Material_0",
      "primitives": [
        {
          "attributes": {
            "NORMAL": 1,
            "POSITION": 0,
            "TEXCOORD_0": 2
          },
          "indices": 3,
          "material": 1,
          "mode": 4
        }
      ]
    },
    {
      "name": "Ceiling_Base Material_0",
      "primitives": [
        {
          "attributes": {
            "NORMAL": 5,
            "POSITION": 4,
            "TEXCOORD_0": 6
          },
          "indices": 7,
          "material": 1,
          "mode": 4
        }
      ]
    },
    {
      "name": "Floor_Base Material_0",
      "primitives": [
        {
          "attributes": {
            "NORMAL": 9,
            "POSITION": 8,
            "TEXCOORD_0": 10
          },
          "indices": 11,
          "material": 1,
          "mode": 4
        }
      ]
    },
    {
      "name": "Window_Glass_0",
      "primitives": [
        {
          "attributes": {
            "NORMAL": 13,
            "POSITION": 12,
            "TEXCOORD_0": 14
          },
          "indices": 15,
          "material": 2,
          "mode": 4
        }
      ]
    },
    {
      "name": "Window_Window_border_0",
      "primitives": [
        {
          "attributes": {
            "NORMAL": 17,
            "POSITION": 16,
            "TEXCOORD_0": 18
          },
          "indices": 19,
          "material": 3,
          "mode": 4
        }
      ]
    },
    {
      "name": "TV_Screen_0",
      "primitives": [
        {
          "attributes": {
            "NORMAL": 21,
            "POSITION": 20,
            "TEXCOORD_0": 22
          },
          "indices": 23,
          "material": 4,
          "mode": 4
        }
      ]
    },
    {
      "name": "TV_Emmisive_0",
      "primitives": [
        {
          "attributes": {
            "NORMAL": 25,
            "POSITION": 24,
            "TEXCOORD_0": 26
          },
          "indices": 27,
          "material": 5,
          "mode": 4
        }
      ]
    },
    {
      "name": "TV Led Panel_Emmisve_0",
      "primitives": [
        {
          "attributes": {
            "NORMAL": 29,
            "POSITION": 28,
            "TEXCOORD_0": 30
          },
          "indices": 31,
          "material": 6,
          "mode": 4
        }
      ]
    },
    {
      "name": "TV Led Panel_Emmisive_0",
      "primitives": [
        {
          "attributes": {
            "NORMAL": 33,
            "POSITION": 32,
            "TEXCOORD_0": 34
          },
          "indices": 35,
          "material": 5,
          "mode": 4
        }
      ]
    },
    {
      "name": "Led Downlight_Cylinder.001_LED housing_0",
      "primitives": [
        {
          "attributes": {
            "NORMAL": 37,
            "POSITION": 36,
            "TEXCOORD_0": 38
          },
          "indices": 39,
          "material": 7,
          "mode": 4
        }
      ]
    },
    {
      "name": "Led Downlight_Cylinder.001_LED_emmisive_0",
      "primitives": [
        {
          "attributes": {
            "NORMAL": 41,
            "POSITION": 40,
            "TEXCOORD_0": 42
          },
          "indices": 43,
          "material": 8,
          "mode": 4
        }
      ]
    },
    {
      "name": "Led Downlight_Cylinder.003_LED housing_0",
      "primitives": [
        {
          "attributes": {
            "NORMAL": 45,
            "POSITION": 44,
            "TEXCOORD_0": 46
          },
          "indices": 47,
          "material": 7,
          "mode": 4
        }
      ]
    },
    {
      "name": "Led Downlight_Cylinder.003_LED_emmisive_0",
      "primitives": [
        {
          "attributes": {
            "NORMAL": 49,
            "POSITION": 48,
            "TEXCOORD_0": 50
          },
          "indices": 51,
          "material": 8,
          "mode": 4
        }
      ]
    },
    {
      "name": "Bed Top Light_Bed Top Light Metal_0",
      "primitives": [
        {
          "attributes": {
            "NORMAL": 53,
            "POSITION": 52
          },
          "indices": 54,
          "material": 9,
          "mode": 4
        }
      ]
    },
    {
      "name": "Bed Top Light_Bed Top Light Emmision_0",
      "primitives": [
        {
          "attributes": {
            "NORMAL": 56,
            "POSITION": 55
          },
          "indices": 57,
          "material": 10,
          "mode": 4
        }
      ]
    },
    {
      "name": "Decal_Decal_0",
      "primitives": [
        {
          "attributes": {
            "NORMAL": 59,
            "POSITION": 58,
            "TEXCOORD_0": 60
          },
          "indices": 61,
          "material": 11,
          "mode": 4
        }
      ]
    },
    {
      "name": "Bed Lamp_Bed Lamp_0",
      "primitives": [
        {
          "attributes": {
            "NORMAL": 63,
            "POSITION": 62,
            "TEXCOORD_0": 64
          },
          "indices": 65,
          "material": 12,
          "mode": 4
        }
      ]
    },
    {
      "name": "Bed.frozen__0",
      "primitives": [
        {
          "attributes": {
            "NORMAL": 67,
            "POSITION": 66,
            "TEXCOORD_0": 68
          },
          "indices": 69,
          "material": 0,
          "mode": 4
        }
      ]
    }
  ],
  "nodes": [
    {
      "children": [1],
      "matrix": [
        0.6548466682434082, 0.0, 0.0, 0.0, 0.0, 1.4540516973658062e-16,
        -0.6548466682434082, 0.0, 0.0, 0.6548466682434082,
        1.4540516973658062e-16, 0.0, 0.0, 0.0, 0.0, 1.0
      ],
      "name": "Sketchfab_model"
    },
    {
      "children": [2],
      "matrix": [
        0.009999999776482582, 0.0, 0.0, 0.0, 0.0, 0.0, 0.009999999776482582,
        0.0, 0.0, -0.009999999776482582, 0.0, 0.0, 0.0, 0.0, 0.0, 1.0
      ],
      "name": "6d4a2380577d4a1588997073e6bf2eb3.fbx"
    },
    {
      "children": [3, 5, 7, 9, 12, 15, 18, 21, 24, 27, 29, 31],
      "name": "RootNode"
    },
    {
      "children": [4],
      "matrix": [
        100.0, 0.0, 0.0, 0.0, 0.0, -1.629206793918314e-5, -99.99999999999868,
        0.0, 0.0, 99.99999999999868, -1.629206793918314e-5, 0.0, 0.0, 0.0, 0.0,
        1.0
      ],
      "name": "Wall"
    },
    {
      "mesh": 0,
      "name": "Wall_Base Material_0"
    },
    {
      "children": [6],
      "matrix": [
        100.0, 0.0, 0.0, 0.0, 0.0, -1.629206793918314e-5, -99.99999999999868,
        0.0, 0.0, 99.99999999999868, -1.629206793918314e-5, 0.0, 0.0, 0.0, 0.0,
        1.0
      ],
      "name": "Ceiling"
    },
    {
      "mesh": 1,
      "name": "Ceiling_Base Material_0"
    },
    {
      "children": [8],
      "matrix": [
        100.0, 0.0, 0.0, 0.0, 0.0, -1.629206793918314e-5, -99.99999999999868,
        0.0, 0.0, 99.99999999999868, -1.629206793918314e-5, 0.0, 0.0, 0.0, 0.0,
        1.0
      ],
      "name": "Floor"
    },
    {
      "mesh": 2,
      "name": "Floor_Base Material_0"
    },
    {
      "children": [10, 11],
      "matrix": [
        100.0, 0.0, 0.0, 0.0, 0.0, -1.629206793918314e-5, -99.99999999999868,
        0.0, 0.0, 99.99999999999868, -1.629206793918314e-5, 0.0, 0.0, 0.0, 0.0,
        1.0
      ],
      "name": "Window"
    },
    {
      "mesh": 3,
      "name": "Window_Glass_0"
    },
    {
      "mesh": 4,
      "name": "Window_Window_border_0"
    },
    {
      "children": [13, 14],
      "matrix": [
        100.0, 0.0, 0.0, 0.0, 0.0, -1.629206793918314e-5, -99.99999999999868,
        0.0, 0.0, 99.99999999999868, -1.629206793918314e-5, 0.0, 0.0, 0.0, 0.0,
        1.0
      ],
      "name": "TV"
    },
    {
      "mesh": 5,
      "name": "TV_Screen_0"
    },
    {
      "mesh": 6,
      "name": "TV_Emmisive_0"
    },
    {
      "children": [16, 17],
      "matrix": [
        100.0, 0.0, 0.0, 0.0, 0.0, -1.629206793918314e-5, -99.99999999999868,
        0.0, 0.0, 99.99999999999868, -1.629206793918314e-5, 0.0, 0.0, 0.0, 0.0,
        1.0
      ],
      "name": "TV Led Panel"
    },
    {
      "mesh": 7,
      "name": "TV Led Panel_Emmisve_0"
    },
    {
      "mesh": 8,
      "name": "TV Led Panel_Emmisive_0"
    },
    {
      "children": [19, 20],
      "matrix": [
        100.0, 0.0, 0.0, 0.0, 0.0, -1.629206793918314e-5, -99.99999999999868,
        0.0, 0.0, 99.99999999999868, -1.629206793918314e-5, 0.0, 0.0, 0.0, 0.0,
        1.0
      ],
      "name": "Led Downlight_Cylinder.001"
    },
    {
      "mesh": 9,
      "name": "Led Downlight_Cylinder.001_LED housing_0"
    },
    {
      "mesh": 10,
      "name": "Led Downlight_Cylinder.001_LED_emmisive_0"
    },
    {
      "children": [22, 23],
      "matrix": [
        100.0, 0.0, 0.0, 0.0, 0.0, -1.629206793918314e-5, -99.99999999999868,
        0.0, 0.0, 99.99999999999868, -1.629206793918314e-5, 0.0, 0.0, 0.0, 0.0,
        1.0
      ],
      "name": "Led Downlight_Cylinder.003"
    },
    {
      "mesh": 11,
      "name": "Led Downlight_Cylinder.003_LED housing_0"
    },
    {
      "mesh": 12,
      "name": "Led Downlight_Cylinder.003_LED_emmisive_0"
    },
    {
      "children": [25, 26],
      "matrix": [
        100.0, 0.0, 0.0, 0.0, 0.0, -1.629206793918314e-5, -99.99999999999868,
        0.0, 0.0, 99.99999999999868, -1.629206793918314e-5, 0.0, 0.0, 0.0, 0.0,
        1.0
      ],
      "name": "Bed Top Light"
    },
    {
      "mesh": 13,
      "name": "Bed Top Light_Bed Top Light Metal_0"
    },
    {
      "mesh": 14,
      "name": "Bed Top Light_Bed Top Light Emmision_0"
    },
    {
      "children": [28],
      "matrix": [
        100.0, 0.0, 0.0, 0.0, 0.0, -1.629206793918314e-5, -99.99999999999868,
        0.0, 0.0, 99.99999999999868, -1.629206793918314e-5, 0.0, 0.0, 0.0, 0.0,
        1.0
      ],
      "name": "Decal"
    },
    {
      "mesh": 15,
      "name": "Decal_Decal_0"
    },
    {
      "children": [30],
      "matrix": [
        100.0, 0.0, 0.0, 0.0, 0.0, -1.629206793918314e-5, -99.99999999999868,
        0.0, 0.0, 99.99999999999868, -1.629206793918314e-5, 0.0, 0.0, 0.0, 0.0,
        1.0
      ],
      "name": "Bed Lamp"
    },
    {
      "mesh": 16,
      "name": "Bed Lamp_Bed Lamp_0"
    },
    {
      "children": [32],
      "matrix": [
        100.0, 0.0, 0.0, 0.0, 0.0, -1.629206793918314e-5, -99.99999999999868,
        0.0, 0.0, 99.99999999999868, -1.629206793918314e-5, 0.0, 0.0, 0.0, 0.0,
        1.0
      ],
      "name": "Bed.frozen"
    },
    {
      "mesh": 17,
      "name": "Bed.frozen__0"
    }
  ],
  "samplers": [
    {
      "magFilter": 9729,
      "minFilter": 9987,
      "wrapS": 10497,
      "wrapT": 10497
    }
  ],
  "scene": 0,
  "scenes": [
    {
      "name": "Sketchfab_Scene",
      "nodes": [0]
    }
  ],
  "textures": [
    {
      "sampler": 0,
      "source": 0
    }
  ]
}
